<svg xmlns="http://www.w3.org/2000/svg" width="27.651" height="18.324" viewBox="0 0 27.651 18.324">
  <path id="Icon_material-people" data-name="Icon material-people" d="M18.99,14.5a3.5,3.5,0,1,0-3.5-3.5A3.483,3.483,0,0,0,18.99,14.5Zm-9.328,0a3.5,3.5,0,1,0-3.5-3.5A3.483,3.483,0,0,0,9.662,14.5Zm0,2.332c-2.717,0-8.162,1.364-8.162,4.081v2.915H17.824V20.909C17.824,18.192,12.379,16.828,9.662,16.828Zm9.328,0c-.338,0-.723.023-1.131.058a4.92,4.92,0,0,1,2.3,4.023v2.915h7V20.909C27.151,18.192,21.706,16.828,18.99,16.828Z" transform="translate(-0.5 -6.5)" fill="none" stroke="#fff" stroke-width="2"/>
</svg>
