<svg id="Icon_feather-settings" data-name="Icon feather-settings" xmlns="http://www.w3.org/2000/svg" width="27.618" height="27.618" viewBox="0 0 27.618 27.618">
  <path id="Path_9" data-name="Path 9" d="M20.214,16.857A3.357,3.357,0,1,1,16.857,13.5,3.357,3.357,0,0,1,20.214,16.857Z" transform="translate(-3.048 -3.048)" fill="none" stroke="#a2b2c9" stroke-linecap="round" stroke-linejoin="round" stroke-width="3"/>
  <path id="Path_10" data-name="Path 10" d="M22.09,17.166a1.846,1.846,0,0,0,.369,2.037l.067.067a2.239,2.239,0,1,1-3.167,3.167l-.067-.067a1.861,1.861,0,0,0-3.156,1.32v.19a2.238,2.238,0,0,1-4.476,0v-.1a1.846,1.846,0,0,0-1.209-1.69,1.846,1.846,0,0,0-2.037.369l-.067.067A2.239,2.239,0,1,1,5.182,19.36l.067-.067a1.861,1.861,0,0,0-1.32-3.156h-.19a2.238,2.238,0,1,1,0-4.476h.1a1.846,1.846,0,0,0,1.69-1.209,1.846,1.846,0,0,0-.369-2.037l-.067-.067A2.239,2.239,0,1,1,8.259,5.182l.067.067a1.846,1.846,0,0,0,2.037.369h.09a1.846,1.846,0,0,0,1.119-1.69v-.19a2.238,2.238,0,1,1,4.476,0v.1A1.861,1.861,0,0,0,19.2,5.159l.067-.067a2.239,2.239,0,1,1,3.167,3.167l-.067.067A1.846,1.846,0,0,0,22,10.363v.09a1.846,1.846,0,0,0,1.69,1.119h.19a2.238,2.238,0,0,1,0,4.476h-.1a1.846,1.846,0,0,0-1.69,1.119Z" fill="none" stroke="#a2b2c9" stroke-linecap="round" stroke-linejoin="round" stroke-width="3"/>
</svg>
