<svg xmlns="http://www.w3.org/2000/svg" width="54" height="52" viewBox="0 0 54 52">
  <g id="Gruppe_38" data-name="Gruppe 38" transform="translate(-292 -118)">
    <ellipse id="Ellipse_2" data-name="Ellipse 2" cx="27" cy="26" rx="27" ry="26" transform="translate(292 118)" fill="#4067a1"/>
    <path id="Icon_awesome-search" data-name="Icon awesome-search" d="M27.558,24.159l-5.441-5.441a1.309,1.309,0,0,0-.928-.382H20.3A11.346,11.346,0,1,0,18.336,20.3v.89a1.309,1.309,0,0,0,.382.928l5.441,5.441a1.3,1.3,0,0,0,1.85,0l1.544-1.544a1.316,1.316,0,0,0,.005-1.855ZM11.351,18.336a6.985,6.985,0,1,1,6.985-6.985A6.981,6.981,0,0,1,11.351,18.336Z" transform="translate(305.031 130.028)" fill="#fff"/>
  </g>
</svg>
