<svg xmlns="http://www.w3.org/2000/svg" width="25.78" height="31.471" viewBox="0 0 25.78 31.471">
  <g id="delete_1_" data-name="delete (1)" transform="translate(0.519 0.501)">
    <path id="Pfad_24" data-name="Pfad 24" d="M223.112,154.7a.714.714,0,0,0-.714.714V168.9a.714.714,0,1,0,1.427,0V155.417A.714.714,0,0,0,223.112,154.7Zm0,0" transform="translate(-206.531 -143.665)" stroke="#000" stroke-width="1"/>
    <path id="Pfad_25" data-name="Pfad 25" d="M105.112,154.7a.714.714,0,0,0-.714.714V168.9a.714.714,0,1,0,1.427,0V155.417A.714.714,0,0,0,105.112,154.7Zm0,0" transform="translate(-96.952 -143.665)" stroke="#000" stroke-width="1"/>
    <path id="Pfad_26" data-name="Pfad 26" d="M2.024,9.07V26.652A3.937,3.937,0,0,0,3.07,29.367a3.514,3.514,0,0,0,2.55,1.1h13.5a3.513,3.513,0,0,0,2.55-1.1,3.937,3.937,0,0,0,1.047-2.715V9.07a2.726,2.726,0,0,0-.7-5.361H18.365V2.817A2.8,2.8,0,0,0,15.539,0H9.2A2.8,2.8,0,0,0,6.376,2.817v.892H2.723a2.726,2.726,0,0,0-.7,5.361Zm17.1,19.972H5.62a2.26,2.26,0,0,1-2.169-2.391V9.133h17.84V26.652A2.26,2.26,0,0,1,19.121,29.042ZM7.8,2.817A1.375,1.375,0,0,1,9.2,1.426h6.337a1.375,1.375,0,0,1,1.4,1.392v.892H7.8ZM2.723,5.137h19.3a1.284,1.284,0,1,1,0,2.569H2.723a1.284,1.284,0,1,1,0-2.569Zm0,0" stroke="#000" stroke-width="1"/>
    <path id="Pfad_27" data-name="Pfad 27" d="M164.112,154.7a.714.714,0,0,0-.714.714V168.9a.714.714,0,1,0,1.427,0V155.417A.714.714,0,0,0,164.112,154.7Zm0,0" transform="translate(-151.741 -143.665)" stroke="#000" stroke-width="1"/>
  </g>
</svg>
