<svg xmlns="http://www.w3.org/2000/svg" width="141" height="502.5" viewBox="0 0 141 502.5">
  <g id="Gruppe_46" data-name="Gruppe 46" transform="translate(-129 -29)">
    <text id="Future." transform="translate(155 333.5) rotate(90)" font-size="118" font-family="HelveticaNeue-Bold, Helvetica Neue" font-weight="700"><tspan x="-197.886" y="0">Future.</tspan></text>
    <g id="Icon_ionic-ios-construct" data-name="Icon ionic-ios-construct" transform="translate(150.025 25.625)">
      <path id="Pfad_14" data-name="Pfad 14" d="M26.719,4.528Z" transform="translate(47.71 2.15)"/>
      <path id="Pfad_15" data-name="Pfad 15" d="M53.3,5.308a14.865,14.865,0,0,0-7.633-1.933,24.825,24.825,0,0,0-9.405,1.853A50.648,50.648,0,0,0,19.929,15.781a47.976,47.976,0,0,0-4.612,5.357c-1.229,1.752.383,4.229-1.229,5.841s-4.975,0-4.975,0a1.064,1.064,0,0,0-.785.322L1.461,34.129a1.094,1.094,0,0,0,0,1.571L14.25,48.408a1.1,1.1,0,0,0,.785.322,1.064,1.064,0,0,0,.785-.322L22.507,41.4a1.094,1.094,0,0,0,0-1.571s-1.067-1.047-2.437-2.417.161-3.887,1.067-4.713a6.2,6.2,0,0,1,4.25-1.37,7.933,7.933,0,0,1,2.3.363c2.457.685,5.2,3.2,10.251,8.217l-.785,1.309a1.745,1.745,0,0,0,.262,2.095s-1.007-.987,2.638,2.638l10.07-9.506c-3.847-3.806-2.92-2.84-2.92-2.84a1.842,1.842,0,0,0-1.269-.463,1.8,1.8,0,0,0-.846.2l-1.128.6c-5.639-5.6-7.109-8.1-6.908-12.426.222-4.511,2.477-7.472,6.143-10.614,4.975-4.25,12.2-3.061,12.2-3.061C57.007,7.826,54.55,6.114,53.3,5.308Z" transform="translate(0 0)"/>
      <path id="Pfad_16" data-name="Pfad 16" d="M55.84,43.285s-13.877-11.52-26.222-23.3L20.011,30.174c11.782,12.2,23.141,25.7,23.141,25.7a1.1,1.1,0,0,0,.785.322,1.064,1.064,0,0,0,.785-.322l11.1-11.017A1.112,1.112,0,0,0,55.84,43.285Z" transform="translate(35.204 30.963)"/>
      <path id="Pfad_17" data-name="Pfad 17" d="M85.962,18.9,75.409,29.5,65.117,27.625,63.265,17.333,73.818,6.739A11.7,11.7,0,0,0,65.963,3.4a2.568,2.568,0,0,0-.4.02A19.261,19.261,0,0,0,53.5,9.4c-4.028,4.25-8.278,12.2-4.511,21.006a3.19,3.19,0,0,1-.544,3.968c-.3.282-1.994,1.893-4.532,4.29-.725.685-1.49,1.41-2.336,2.215-1.611,1.531-3.444,3.263-5.4,5.075-.765.725-1.551,1.45-2.336,2.215C22.36,59,8.282,72.235,8.282,72.235c-3.625,3.122-3.363,8.882-.02,12.245a9.022,9.022,0,0,0,6.3,2.578,7.71,7.71,0,0,0,5.941-2.638S33.7,70.362,44.534,58.862c.745-.806,1.49-1.571,2.215-2.356,1.873-1.994,3.625-3.847,5.2-5.5.785-.846,1.531-1.631,2.215-2.336,2.316-2.457,3.887-4.109,4.229-4.431a3.116,3.116,0,0,1,2.236-1.027,3.874,3.874,0,0,1,1.732.483,14.158,14.158,0,0,0,6.525,1.47A21.658,21.658,0,0,0,83.4,39.225c4.914-4.914,5.8-9.647,5.961-12.084A11.049,11.049,0,0,0,85.962,18.9ZM17.124,79.485a2.82,2.82,0,1,1,0-3.988A2.845,2.845,0,0,1,17.124,79.485Z" transform="translate(8.445 0.039)"/>
    </g>
  </g>
</svg>
